<?xml version="1.0" encoding="utf-8"?>
<!-- Generator: Adobe Illustrator 26.5.0, SVG Export Plug-In . SVG Version: 6.00 Build 0)  -->
<svg version="1.1" id="Capa_1" xmlns="http://www.w3.org/2000/svg" xmlns:xlink="http://www.w3.org/1999/xlink" x="0px" y="0px"
	 viewBox="0 0 90 90" style="enable-background:new 0 0 90 90;" xml:space="preserve">
<style type="text/css">
	.st0{fill:#FFFFFF;}
</style>
<g>
	<g>
		<g>
			<g>
				<path class="st0" d="M73.1,0H16.9C7.6,0,0,7.6,0,16.9v56.3C0,82.4,7.6,90,16.9,90h56.3C82.4,90,90,82.4,90,73.1V16.9
					C90,7.6,82.4,0,73.1,0z M67.4,34.9l0,1.4c0,14.6-11.1,31.5-31.5,31.5c-6.3,0-12.1-1.8-17-5c0.9,0.1,1.7,0.2,2.6,0.2
					c5.2,0,10-1.8,13.8-4.7c-4.8-0.1-8.9-3.3-10.4-7.7c0.7,0.1,1.4,0.2,2.1,0.2c1,0,2-0.1,2.9-0.4c-5.1-1-8.9-5.5-8.9-10.9v-0.1
					c1.5,0.8,3.2,1.3,5,1.4c-3-2-4.9-5.4-4.9-9.2c0-2,0.5-3.9,1.5-5.6c5.5,6.7,13.6,11.1,22.8,11.6c-0.2-0.8-0.3-1.7-0.3-2.5
					c0-6.1,5-11.1,11.1-11.1c3.2,0,6.1,1.3,8.1,3.5c2.5-0.5,4.9-1.4,7-2.7c-0.8,2.6-2.6,4.8-4.9,6.1c2.2-0.3,4.4-0.9,6.4-1.7
					C71.4,31.4,69.6,33.3,67.4,34.9z"/>
			</g>
		</g>
		<g>
		</g>
		<g>
		</g>
		<g>
		</g>
		<g>
		</g>
		<g>
		</g>
		<g>
		</g>
		<g>
		</g>
		<g>
		</g>
		<g>
		</g>
		<g>
		</g>
		<g>
		</g>
		<g>
		</g>
		<g>
		</g>
		<g>
		</g>
		<g>
		</g>
	</g>
	<g>
	</g>
	<g>
	</g>
	<g>
	</g>
	<g>
	</g>
	<g>
	</g>
	<g>
	</g>
	<g>
	</g>
	<g>
	</g>
	<g>
	</g>
	<g>
	</g>
	<g>
	</g>
	<g>
	</g>
	<g>
	</g>
	<g>
	</g>
	<g>
	</g>
</g>
</svg>
